<?xml version="1.0" encoding="UTF-8" standalone="no"?>
<!-- Created with Inkscape (http://www.inkscape.org/) -->

<svg
   xmlns:dc="http://purl.org/dc/elements/1.1/"
   xmlns:cc="http://creativecommons.org/ns#"
   xmlns:rdf="http://www.w3.org/1999/02/22-rdf-syntax-ns#"
   xmlns:svg="http://www.w3.org/2000/svg"
   xmlns="http://www.w3.org/2000/svg"
   xmlns:sodipodi="http://sodipodi.sourceforge.net/DTD/sodipodi-0.dtd"
   xmlns:inkscape="http://www.inkscape.org/namespaces/inkscape"
   width="297mm"
   height="210mm"
   viewBox="0 0 297 210"
   version="1.1"
   id="svg8"
   inkscape:version="0.92.3 (2405546, 2018-03-11)"
   sodipodi:docname="GigglyPlaythingsLogo-final.svg">
  <defs
     id="defs2" />
  <sodipodi:namedview
     id="base"
     pagecolor="#ffffff"
     bordercolor="#666666"
     borderopacity="1.0"
     inkscape:pageopacity="0.0"
     inkscape:pageshadow="2"
     inkscape:zoom="0.7"
     inkscape:cx="843.5172"
     inkscape:cy="255.36839"
     inkscape:document-units="mm"
     inkscape:current-layer="layer1"
     showgrid="false"
     showguides="true"
     inkscape:guide-bbox="true"
     inkscape:window-width="1920"
     inkscape:window-height="1047"
     inkscape:window-x="0"
     inkscape:window-y="0"
     inkscape:window-maximized="1" />
  <metadata
     id="metadata5">
    <rdf:RDF>
      <cc:Work
         rdf:about="">
        <dc:format>image/svg+xml</dc:format>
        <dc:type
           rdf:resource="http://purl.org/dc/dcmitype/StillImage" />
        <dc:title />
      </cc:Work>
    </rdf:RDF>
  </metadata>
  <g
     inkscape:label="Layer 1"
     inkscape:groupmode="layer"
     id="layer1"
     transform="translate(0,-87)">
    <rect
       style="fill:#ffeb2f;fill-opacity:1;stroke:none;stroke-width:2.05722427;stroke-linejoin:miter;stroke-miterlimit:4;stroke-dasharray:none;stroke-opacity:1"
       id="rect827"
       width="227.67926"
       height="146.23323"
       x="34.66037"
       y="118.88338" />
    <path
       style="fill:#ff0000;fill-opacity:1;stroke:#ff0000;stroke-width:1.56210005;stroke-linecap:butt;stroke-linejoin:miter;stroke-miterlimit:4;stroke-dasharray:none;stroke-opacity:1"
       d="m 80.505485,138.90352 c -1.959672,-8.26305 -16.172827,-6.71011 -21.491472,-0.0487 -5.82956,7.30133 -7.970773,18.93283 -4.604574,27.64844 1.490138,3.85819 5.603189,7.84748 9.73622,7.69168 2.309657,-0.0871 6.956661,-2.89969 8.354343,-5.27382 1.397681,-2.37415 0.657647,-4.2779 1.89867,-4.36729 1.748664,-0.1256 2.348599,1.10058 2.421875,2.85221 0.05662,1.35359 -2.431318,4.01221 -1.46128,4.95796 2.396116,2.33616 10.690107,-0.42265 8.262347,-4.88054 -2.785674,-5.11507 -1.781409,-11.25526 -3.64935,-14.74758 -1.774264,-3.31718 -8.223857,-1.65265 -9.368842,0.92464 -1.245206,2.80288 0.179822,4.3615 0.854851,5.57634 0.990132,1.78193 0.330187,3.04881 -1.05754,4.81144 -1.146781,1.45657 -2.236217,3.1223 -3.874594,3.98973 -3.154302,1.67005 -5.886111,-1.12927 -6.715164,-3.90735 -2.063163,-6.91348 -0.177847,-16.29989 5.310737,-20.98265 2.485116,-2.12026 7.432562,-3.17025 9.760616,-0.87864 2.895021,2.84969 6.643413,0.93607 5.623156,-3.36588 z"
       id="path826"
       inkscape:connector-curvature="0"
       sodipodi:nodetypes="ssssssssssssssssss" />
    <path
       style="fill:#ff0000;fill-opacity:1;stroke:#ff0000;stroke-width:1.56210005;stroke-linecap:butt;stroke-linejoin:miter;stroke-miterlimit:4;stroke-dasharray:none;stroke-opacity:1"
       d="m 91.892972,132.11989 c -3.861523,1.62682 -4.184393,6.51461 -0.227072,6.59983 2.369111,0.051 4.284936,3.49645 3.406052,6.39983 -1.606124,5.3058 -2.520476,10.49323 -2.497772,15.19962 0.01237,2.56425 -2.75932,5.61356 -3.860192,6.29983 -1.259736,0.78532 -1.233099,1.68515 -0.45414,3.59989 0.73282,1.80134 3.227686,1.86284 4.995543,1.49997 2.963302,-0.60822 7.274989,1.0798 10.218159,0.39999 2.89046,-0.66763 3.23407,-2.4589 1.58949,-4.39987 -1.39454,-1.64589 -5.385294,-1.56236 -5.676754,-3.59991 -0.60417,-4.22375 0.820524,-10.33932 0.908284,-17.19956 0.0432,-3.37346 2.96134,-8.21021 6.69856,-8.94978 2.63501,-0.52143 5.61177,-1.39091 3.57636,-4.94986 -1.51886,-2.65576 -8.6998,-1.44993 -12.943004,-1.54997 -1.967232,-0.0463 -3.958214,-0.098 -5.733514,0.64999 z"
       id="path828"
       inkscape:connector-curvature="0"
       sodipodi:nodetypes="sssssssssssssss" />
    <path
       style="fill:#ff0000;fill-opacity:1;stroke:#ff0000;stroke-width:1.56210005;stroke-linecap:butt;stroke-linejoin:miter;stroke-miterlimit:4;stroke-dasharray:none;stroke-opacity:1"
       d="m 185.99371,137.45847 c 0.62973,-1.58919 1.06157,-2.82756 2.81739,-2.97127 2.15708,-0.17655 2.24952,1.66187 6.78923,0.83617 1.76584,-0.32118 3.98356,2.31247 2.52989,4.58594 -1.5463,2.41835 -1.9687,3.76932 -2.54967,5.59866 -1.0559,3.32474 -0.3913,5.47319 -1.01143,8.63369 -0.26493,3.47554 -0.47271,6.21688 0.82669,9.31703 1.12031,2.6637 5.32016,3.58122 8.73351,3.37432 2.56996,-0.15577 5.37886,-3.11652 7.91216,-2.65418 6.22049,1.13525 4.48291,7.41038 1.90983,9.79303 -3.68181,3.40932 -7.04977,-0.43274 -11.27711,-0.82371 -2.38558,-0.22063 -4.95005,-0.68608 -7.18459,0.18305 -4.76509,1.85339 -7.60086,2.15612 -8.73066,-0.91524 -0.77888,-2.11736 -0.66698,-4.6477 0.091,-6.77276 1.00396,-2.81497 1.97213,-5.43955 1.75,-8.68366 -0.3592,-5.24617 -1.10087,-8.34385 -1.65906,-11.90919 -0.37046,-2.36622 -1.82877,-5.36686 -0.94712,-7.59188 z"
       id="path830"
       inkscape:connector-curvature="0"
       sodipodi:nodetypes="sssssccssssssssss" />
    <path
       style="fill:#ff0000;fill-opacity:1;stroke:#ff0000;stroke-width:1.56210005;stroke-linecap:butt;stroke-linejoin:miter;stroke-miterlimit:4;stroke-dasharray:none;stroke-opacity:1"
       d="m 210.45533,143.27653 c -0.76201,-5.86376 2.48766,-10.4261 7.61256,-6.21558 2.31086,1.89854 3.98933,4.53171 5.61628,7.07642 2.31278,3.61741 5.32016,4.26779 7.24384,-0.51672 1.51686,-3.77265 2.32143,-8.12432 5.0268,-11.09798 3.5941,-3.95056 7.94585,-0.9624 8.23945,4.28277 0.23537,4.20456 -3.70472,9.68528 -5.64145,11.03741 -4.88164,3.4081 -4.04935,8.24714 -3.97371,12.99864 0.0541,3.40117 0.81349,6.95145 -0.13444,10.2018 -1.17578,4.03163 -7.51312,4.97359 -8.76805,1.05569 -1.76774,-5.51885 0.0692,-11.32523 -1.50956,-14.80676 -1.02267,-2.2553 -1.83804,-3.91649 -4.86391,-5.14387 -4.01059,-1.62683 -8.27128,-4.4354 -8.84779,-8.87183 z"
       id="path832"
       inkscape:connector-curvature="0"
       sodipodi:nodetypes="sssssssssssss" />
    <path
       sodipodi:nodetypes="ssssssssssssssssss"
       inkscape:connector-curvature="0"
       id="path834"
       d="m 176.18308,142.49016 c -1.73642,-8.31283 -15.98625,-7.14322 -21.48236,-0.62745 -6.02408,7.14168 -8.47777,18.71129 -5.34752,27.5144 1.3857,3.89693 5.38982,7.99553 9.52555,7.95109 2.31117,-0.0248 7.03224,-2.71128 8.49334,-5.04691 1.46112,-2.33564 0.77262,-4.25864 2.0156,-4.31457 1.75141,-0.0788 2.31811,1.16342 2.34419,2.91639 0.0201,1.35462 -2.5385,3.94528 -1.59427,4.91682 2.33232,2.39983 10.6976,-0.1346 8.39078,-4.65626 -2.6469,-5.18824 -1.47764,-11.29915 -3.25085,-14.84051 -1.68428,-3.36377 -8.17637,-1.87353 -9.39035,0.67199 -1.32024,2.76832 0.0623,4.36476 0.70436,5.59734 0.94178,1.80795 0.24796,3.0566 -1.18673,4.78121 -1.18559,1.42517 -2.3195,3.06094 -3.98064,3.88394 -3.19813,1.58449 -5.85356,-1.28738 -6.6075,-4.08678 -1.87623,-6.96654 0.26119,-16.29876 5.87391,-20.83202 2.54131,-2.05256 7.51524,-2.96893 9.78073,-0.61545 2.81722,2.92663 6.6158,1.11464 5.71176,-3.21323 z"
       style="fill:#ff0000;fill-opacity:1;stroke:#ff0000;stroke-width:1.56210005;stroke-linecap:butt;stroke-linejoin:miter;stroke-miterlimit:4;stroke-dasharray:none;stroke-opacity:1" />
    <path
       style="fill:#ff0000;fill-opacity:1;stroke:#ff0000;stroke-width:1.56210005;stroke-linecap:butt;stroke-linejoin:miter;stroke-miterlimit:4;stroke-dasharray:none;stroke-opacity:1"
       d="m 140.43683,141.12466 c -1.29873,-8.39235 -15.59024,-7.97058 -21.42003,-1.75155 -6.3898,6.81641 -9.44599,18.24166 -6.78102,27.19661 1.17972,3.96414 4.96372,8.26681 9.0961,8.43902 2.30929,0.0962 7.16457,-2.33932 8.74598,-4.59525 1.58142,-2.25591 0.99457,-4.21231 2.23877,-4.20309 1.75313,0.013 2.25401,1.28322 2.18825,3.03516 -0.0509,1.35382 -2.74161,3.80693 -1.84957,4.82659 2.20346,2.51867 10.68999,0.42578 8.62311,-4.21047 -2.37158,-5.31973 -0.88391,-11.36104 -2.46924,-14.9904 -1.50583,-3.44735 -8.06704,-2.29912 -9.41265,0.17937 -1.4634,2.6954 -0.16636,4.36204 0.41028,5.62656 0.84582,1.85478 0.0875,3.06539 -1.43548,4.71249 -1.2586,1.36114 -2.47661,2.93529 -4.17857,3.67017 -3.27671,1.41483 -5.77811,-1.59215 -6.38441,-4.4272 -1.50884,-7.05522 1.11435,-16.26271 6.95674,-20.49582 2.64531,-1.91667 7.66041,-2.57131 9.79955,-0.10244 2.6601,3.07015 6.54835,1.45956 5.87219,-2.90971 z"
       id="path836"
       inkscape:connector-curvature="0"
       sodipodi:nodetypes="ssssssssssssssssss" />
    <text
       xml:space="preserve"
       style="font-style:normal;font-variant:normal;font-weight:normal;font-stretch:normal;font-size:14.11111069px;line-height:1.25;font-family:'Arial Black';-inkscape-font-specification:'Arial Black, ';letter-spacing:0px;word-spacing:0px;fill:#000000;fill-opacity:1;stroke:#1b0000;stroke-width:1.05833328;stroke-miterlimit:4;stroke-dasharray:none;stroke-opacity:1;"
       x="85.174026"
       y="194.97423"
       id="text844"><tspan
         sodipodi:role="line"
         id="tspan842"
         x="85.174026"
         y="194.97423"
         style="font-style:normal;font-variant:normal;font-weight:normal;font-stretch:normal;font-size:19.75555611px;font-family:OpenDyslexic;-inkscape-font-specification:OpenDyslexic;fill:#000000;fill-opacity:1;stroke:#1b0000;stroke-width:1.05833328;stroke-miterlimit:4;stroke-dasharray:none;stroke-opacity:1;">PLYATHINGS</tspan></text>
    <path
       style="fill:#ff0000;stroke:#000000;stroke-width:0.95964375;stroke-linecap:butt;stroke-linejoin:miter;stroke-opacity:1;stroke-miterlimit:4;stroke-dasharray:none"
       d="M 227.44496,205.14814 C 174.6305,273.63464 82.56679,241.07222 65.314117,191.31843 122.34168,214.09096 192.69347,209.40484 227.44496,205.14814 Z"
       id="path829"
       inkscape:connector-curvature="0"
       sodipodi:nodetypes="ccc" />
    <path
       sodipodi:nodetypes="ccc"
       inkscape:connector-curvature="0"
       id="path831"
       d="m 65.324139,177.70012 c 2.505383,13.79485 -7.417131,17.51228 -17.69904,14.45052 17.435655,1.15055 16.790894,-5.89636 17.69904,-14.45052 z"
       style="fill:#000000;stroke:#000000;stroke-width:0.05879489px;stroke-linecap:butt;stroke-linejoin:miter;stroke-opacity:1" />
    <path
       style="fill:#000000;stroke:#000000;stroke-width:0.05879489px;stroke-linecap:butt;stroke-linejoin:miter;stroke-opacity:1"
       d="m 244.64685,206.51651 c -13.29458,4.45298 -18.39319,-4.83571 -16.83375,-15.44986 1.12173,17.11007 8.26602,15.70355 16.83375,15.44986 z"
       id="path833"
       inkscape:connector-curvature="0"
       sodipodi:nodetypes="ccc" />
    <path
       sodipodi:nodetypes="ccc"
       inkscape:connector-curvature="0"
       id="path859"
       d="M 226.45277,205.76235 C 148.79356,248.43203 82.275725,212.67621 66.911449,192.51263 124.289,214.9207 192.55068,210.03397 226.45277,205.76235 Z"
       style="fill:#ffffff;stroke:#000000;stroke-width:1.29540002;stroke-linecap:butt;stroke-linejoin:miter;stroke-miterlimit:4;stroke-dasharray:none;stroke-opacity:1" />
    <path
       style="fill:#ffffff;stroke:#000000;stroke-width:0.58598524px;stroke-linecap:butt;stroke-linejoin:miter;stroke-opacity:1"
       d="m 112.59562,243.07822 c -1.81623,-3.45536 -1.91927,-7.23351 -2.63275,-11.02085 -0.85448,-4.53579 0.20273,-12.64991 2.24655,-16.84541 1.09642,-2.25063 2.33598,-3.71496 5.06512,-3.70723 4.77197,0.0128 5.58441,4.75184 5.58538,4.90993 0.0214,3.47894 -4.18076,11.18309 -4.3004,12.00823 0,0 13.37559,-27.32666 23.11069,-30.47278 3.07657,-0.99426 5.72203,-0.2205 5.96931,2.59578 0.37311,4.24932 -8.14792,15.27667 -11.62507,20.94038 3.56103,-3.79804 9.66019,-15.63518 14.70771,-21.00244 2.55063,-2.71217 8.81107,-0.40967 7.60797,4.26326 -1.77263,6.88503 -7.86981,15.00028 -11.41711,20.71253 2.81858,-3.62291 7.5736,-12.02716 11.42161,-17.62458 4.20541,-6.11732 11.52385,-0.75697 8.15418,5.97132 -2.59012,5.17175 -10.65861,13.48631 -12.5805,16.34069 3.64377,-2.8877 11.34846,-16.87204 16.17204,-14.78238 4.22397,1.82989 1.30919,8.40141 -0.50121,11.18668 -5.51622,8.48663 -9.9061,17.04261 -17.09299,24.43112 -3.05454,3.14021 -8.20017,5.29014 -12.70585,5.92659 -10.54408,1.48945 -21.52794,-3.06906 -27.18468,-13.83084 z"
       id="path857"
       inkscape:connector-curvature="0"
       sodipodi:nodetypes="ssssscsscsscsscsssss" />
    <path
       style="fill:none;stroke:#000000;stroke-width:0.26458332;stroke-linecap:butt;stroke-linejoin:miter;stroke-miterlimit:4;stroke-dasharray:none;stroke-opacity:1"
       d="m 139.87408,199.74199 c 1.03248,4.02105 2.20559,5.36555 4.26362,6.31647 5.20931,-5.84827 1.08757,-9.57915 -4.26362,-6.31647 z"
       id="path827"
       inkscape:connector-curvature="0"
       sodipodi:nodetypes="ccc" />
    <path
       sodipodi:nodetypes="ccc"
       inkscape:connector-curvature="0"
       id="path835"
       d="m 148.72848,205.10894 c 1.95798,3.66076 3.48368,3.91976 5.70867,4.35466 6.90471,-7.83667 -2.08988,-11.83224 -5.70867,-4.35466 z"
       style="fill:none;stroke:#000000;stroke-width:0.26458332;stroke-linecap:butt;stroke-linejoin:miter;stroke-miterlimit:4;stroke-dasharray:none;stroke-opacity:1" />
    <path
       style="fill:none;stroke:#000000;stroke-width:0.26458332;stroke-linecap:butt;stroke-linejoin:miter;stroke-miterlimit:4;stroke-dasharray:none;stroke-opacity:1"
       d="m 158.35019,209.08457 c 1.95798,3.66076 4.01822,5.28952 6.24321,5.72442 5.64206,-7.41827 -2.84004,-11.78381 -6.24321,-5.72442 z"
       id="path837"
       inkscape:connector-curvature="0"
       sodipodi:nodetypes="ccc" />
    <path
       sodipodi:nodetypes="ccc"
       inkscape:connector-curvature="0"
       id="path839"
       d="m 165.08202,218.56398 c 5.35075,-5.75981 7.95129,-0.0194 5.16268,4.5835 -2.73185,-0.58082 -4.18342,-2.59402 -5.16268,-4.5835 z"
       style="fill:none;stroke:#000000;stroke-width:0.22611192;stroke-linecap:butt;stroke-linejoin:miter;stroke-miterlimit:4;stroke-dasharray:none;stroke-opacity:1" />
  </g>
</svg>
